<svg width="32" height="32" viewBox="0 0 32 32" fill="none" xmlns="http://www.w3.org/2000/svg">
  <defs>
    <linearGradient id="grad1" x1="0%" y1="0%" x2="100%" y2="100%">
      <stop offset="0%" style="stop-color:#8B5CF6;stop-opacity:1" />
      <stop offset="100%" style="stop-color:#EC4899;stop-opacity:1" />
    </linearGradient>
  </defs>
  
  <!-- Background circle with gradient -->
  <circle cx="16" cy="16" r="15" fill="url(#grad1)" stroke="#8B5CF6" stroke-width="2"/>
  
  <!-- Letter A -->
  <path d="M16 6 L22 26 L20 26 L18 20 L14 20 L12 26 L10 26 L16 6 Z M16 8 L14 18 L18 18 L16 8 Z" fill="white"/>
  
  <!-- Letter R -->
  <path d="M8 6 L8 26 L10 26 L10 18 L14 18 C16.2 18 18 16.2 18 14 C18 11.8 16.2 10 14 10 L8 10 L8 6 Z M10 12 L14 12 C15.1 12 16 12.9 16 14 C16 15.1 15.1 16 14 16 L10 16 L10 12 Z" fill="white"/>
</svg> 